<svg width="27" height="26" viewBox="0 0 27 26" fill="none" xmlns="http://www.w3.org/2000/svg">
<path d="M19.5088 0C21.6165 6.46555e-05 23.3764 0.727471 24.7891 2.18164C26.2017 3.63581 26.9082 5.44751 26.9082 7.61719C26.9082 8.67894 26.7288 9.71781 26.3701 10.7334C26.0338 11.749 25.4281 12.8685 24.5537 14.0918C23.6792 15.292 22.5023 16.6544 21.0225 18.1777C19.5425 19.7012 17.67 21.5137 15.4053 23.6143L13.4541 25.4141L11.5029 23.6143C9.23818 21.5137 7.36568 19.7012 5.88574 18.1777C4.40593 16.6544 3.22895 15.292 2.35449 14.0918C1.48008 12.8685 0.863633 11.749 0.504883 10.7334C0.168553 9.71778 0 8.67897 0 7.61719C5.01623e-05 5.44753 0.706565 3.63581 2.11914 2.18164C3.53174 0.72749 5.29176 8.39621e-05 7.39941 0C8.56538 0 9.67563 0.253942 10.7295 0.761719C11.7833 1.26951 12.6917 1.98497 13.4541 2.9082C14.2165 1.98495 15.1249 1.26952 16.1787 0.761719C17.2326 0.253921 18.3428 0 19.5088 0Z" fill="#3DB0B4"/>
</svg>
